<?xml version="1.0" encoding="UTF-8"?><svg id="Layer_2" xmlns="http://www.w3.org/2000/svg" viewBox="0 0 726.63 142.99"><defs><style>.cls-1{fill:#003b0b;}.cls-2{fill:#ef148f;}</style></defs><g id="Layer_1-2"><rect class="cls-1" x="74.89" y="-14.93" width="53.98" height="83.83" rx="25.86" ry="25.86" transform="translate(74.89 128.87) rotate(-90)"/><rect class="cls-1" x=".38" y="59.16" width="53.98" height="83.83" rx="25.86" ry="25.86" transform="translate(54.74 202.15) rotate(180)"/><rect class="cls-2" x="0" width="53.98" height="54.98" rx="25.86" ry="25.86" transform="translate(53.98 54.98) rotate(180)"/><rect class="cls-1" x="59.96" y="59.16" width="53.98" height="54.98" rx="25.86" ry="25.86" transform="translate(173.9 173.29) rotate(180)"/><path class="cls-1" d="m698.03,48.06h-6.77v18.31h-5.39v-18.31h-6.82v-4.9h18.98v4.9Zm2.75-4.9h6.43l6.49,12.16,6.49-12.16h6.43v23.21h-5.33v-14.35l-5.44,9.84h-4.35l-5.33-9.68v14.19h-5.39v-23.21Z"/><path class="cls-1" d="m248.44,1.63c6.06,0,13.22,1.47,19.83,4.23v22.4c-4.04-2.39-8.63-4.04-15.24-4.04-8.08,0-15.79,5.51-15.79,18.54v2.94h42.6V9.89h25.71v129.26h-25.71v-72.16h-42.6v72.16h-25.7v-72.16h-15.06v-21.3h15.06v-4.22c0-26.99,15.97-39.85,36.91-39.85Z"/><path class="cls-1" d="m348.16,64.98c-9.55,0-19.28,3.49-27.36,10.46v-21.67c8.81-6.79,20.56-10.28,31.95-10.28,26.62,0,44.8,15.97,44.8,38.93v56.74h-25.71v-11.94c-4.22,8.63-13.77,14.14-25.16,14.14-18.18,0-31.4-12.85-31.4-30.11s13.95-29.38,32.87-29.38c9.36,0,18.18,2.75,23.68,6.61v-4.59c0-11.75-9.18-18.91-23.68-18.91Zm6.24,57.29c9.36,0,16.89-7.35,17.44-17.44v-.55c-5.14-3.3-11.2-5.32-17.44-5.32-8.63,0-14.69,4.96-14.69,11.57s6.24,11.75,14.69,11.75Z"/><path class="cls-1" d="m396.45,45.7h28.28l23.5,59.86,23.87-59.86h27.91l-41.31,93.46h-20.93l-41.31-93.46Z"/><path class="cls-1" d="m494.32,92.52c0-27.91,22.03-49.02,50.68-49.02s50.68,21.12,50.68,49.02-22.22,48.84-50.68,48.84-50.68-21.3-50.68-48.84Zm50.68,25.52c13.95,0,24.6-10.83,24.6-25.52s-10.65-25.71-24.6-25.71-24.6,11.02-24.6,25.71,10.65,25.52,24.6,25.52Z"/><path class="cls-1" d="m649.85,67.55c-10.83,0-16.71,8.63-16.71,23.69v47.92h-25.71v-52.15c0-26.63,11.2-43.52,37.64-43.52,3.86,0,12.67.92,16.16,2.2v24.42c-1.84-1.28-8.81-2.57-11.38-2.57Z"/></g></svg>