<svg width="48" height="48" viewBox="0 0 48 48" fill="none" xmlns="http://www.w3.org/2000/svg">
<path d="M4.00001 42C3.43334 42 2.95801 41.808 2.57401 41.424C2.19001 41.04 1.99867 40.5653 2.00001 40C2.00001 39.4333 2.19201 38.958 2.57601 38.574C2.96001 38.19 3.43467 37.9987 4.00001 38H44C44.5667 38 45.042 38.192 45.426 38.576C45.81 38.96 46.0013 39.4347 46 40C46 40.5667 45.808 41.042 45.424 41.426C45.04 41.81 44.5653 42.0013 44 42H4.00001ZM8.00001 36C6.90001 36 5.95801 35.608 5.17401 34.824C4.39001 34.04 3.99867 33.0987 4.00001 32V10C4.00001 8.9 4.39201 7.958 5.17601 7.174C5.96001 6.39 6.90134 5.99867 8.00001 6H40C41.1 6 42.042 6.392 42.826 7.176C43.61 7.96 44.0013 8.90134 44 10V32C44 33.1 43.608 34.042 42.824 34.826C42.04 35.61 41.0987 36.0013 40 36H8.00001ZM8.00001 32H40V10H8.00001V32Z" fill="#153A12"/>
</svg>
