<svg width="48" height="49" viewBox="0 0 48 49" fill="none" xmlns="http://www.w3.org/2000/svg">
<mask id="mask0_2793_64460" style="mask-type:alpha" maskUnits="userSpaceOnUse" x="0" y="0" width="48" height="49">
<rect y="0.524658" width="48" height="48" fill="#D9D9D9"/>
</mask>
<g mask="url(#mask0_2793_64460)">
<path d="M22.3348 34.5248H14.0015C11.2348 34.5248 8.87646 33.5498 6.92646 31.5998C4.97646 29.6498 4.00146 27.2915 4.00146 24.5248C4.00146 21.7582 4.97646 19.3998 6.92646 17.4498C8.87646 15.4998 11.2348 14.5248 14.0015 14.5248H22.3348V17.8581H14.0015C12.1496 17.8581 10.5755 18.5055 9.27921 19.8003C7.98291 21.0951 7.33476 22.6673 7.33476 24.517C7.33476 26.3667 7.98291 27.9415 9.27921 29.2415C10.5755 30.5415 12.1496 31.1915 14.0015 31.1915H22.3348V34.5248ZM16.1681 26.1915V22.8582H31.8348V26.1915H16.1681ZM25.6681 34.5248V31.1915H34.0015C35.8533 31.1915 37.4274 30.5441 38.7237 29.2493C40.02 27.9546 40.6682 26.3824 40.6682 24.5327C40.6682 22.683 40.02 21.1082 38.7237 19.8081C37.4274 18.5081 35.8533 17.8581 34.0015 17.8581H25.6681V14.5248H34.0015C36.7681 14.5248 39.1265 15.4998 41.0765 17.4498C43.0265 19.3998 44.0015 21.7582 44.0015 24.5248C44.0015 27.2915 43.0265 29.6498 41.0765 31.5998C39.1265 33.5498 36.7681 34.5248 34.0015 34.5248H25.6681Z" fill="#1C1B1F"/>
</g>
</svg>
