<svg width="22" height="22" viewBox="0 0 22 22" fill="none" xmlns="http://www.w3.org/2000/svg">
<mask id="mask0_2900_74520" style="mask-type:alpha" maskUnits="userSpaceOnUse" x="0" y="0" width="22" height="22">
<rect x="0.59668" y="-6.10352e-05" width="21.3994" height="21.3994" fill="#D9D9D9"/>
</mask>
<g mask="url(#mask0_2900_74520)">
<path d="M9.42377 16.9411C7.98228 16.9411 6.74513 16.473 5.71231 15.5368C4.67949 14.6006 4.16309 13.434 4.16309 12.0371C4.16309 10.6402 4.67949 9.47365 5.71231 8.53743C6.74513 7.6012 7.98228 7.13309 9.42377 7.13309H15.0411L12.7228 4.81483L13.9711 3.56653L18.4293 8.02473L13.9711 12.4829L12.7228 11.2346L15.0411 8.91637H9.42377C8.48754 8.91637 7.67392 9.21359 6.9829 9.80801C6.29188 10.4024 5.94637 11.1455 5.94637 12.0371C5.94637 12.9288 6.29188 13.6718 6.9829 14.2662C7.67392 14.8606 8.48754 15.1579 9.42377 15.1579H15.7544V16.9411H9.42377Z" fill="#1C1B1F"/>
</g>
</svg>
