<svg width="48" height="49" viewBox="0 0 48 49" fill="none" xmlns="http://www.w3.org/2000/svg">
<mask id="mask0_2793_64465" style="mask-type:alpha" maskUnits="userSpaceOnUse" x="0" y="0" width="48" height="49">
<rect y="0.524658" width="48" height="48" fill="#D9D9D9"/>
</mask>
<g mask="url(#mask0_2793_64465)">
<path d="M13.05 22.2247L24.05 4.52466L35.05 22.2247H13.05ZM35.2823 44.5247C32.8608 44.5247 30.8083 43.6805 29.125 41.9923C27.4417 40.3041 26.6 38.2541 26.6 35.8423C26.6 33.4305 27.4441 31.3747 29.1323 29.6747C30.8206 27.9747 32.8706 27.1247 35.2823 27.1247C37.6941 27.1247 39.75 27.9722 41.45 29.6673C43.15 31.3624 44 33.4207 44 35.8423C44 38.2639 43.1524 40.3163 41.4573 41.9997C39.7622 43.683 37.7039 44.5247 35.2823 44.5247ZM6 43.2747V28.0747H21.2V43.2747H6Z" fill="#1C1B1F"/>
</g>
</svg>
