<svg width="23" height="22" viewBox="0 0 23 22" fill="none" xmlns="http://www.w3.org/2000/svg">
<mask id="mask0_2900_74514" style="mask-type:alpha" maskUnits="userSpaceOnUse" x="0" y="0" width="23" height="22">
<rect x="0.798828" width="21.3994" height="21.3994" fill="#D9D9D9"/>
</mask>
<g mask="url(#mask0_2900_74514)">
<path d="M7.04016 16.9411V15.1579H13.3708C14.307 15.1579 15.1207 14.8606 15.8117 14.2662C16.5027 13.6718 16.8482 12.9288 16.8482 12.0371C16.8482 11.1455 16.5027 10.4024 15.8117 9.80801C15.1207 9.21359 14.307 8.91637 13.3708 8.91637H7.75347L10.0717 11.2346L8.82344 12.4829L4.36523 8.02473L8.82344 3.56653L10.0717 4.81483L7.75347 7.13309H13.3708C14.8123 7.13309 16.0494 7.6012 17.0823 8.53743C18.1151 9.47365 18.6315 10.6402 18.6315 12.0371C18.6315 13.434 18.1151 14.6006 17.0823 15.5368C16.0494 16.473 14.8123 16.9411 13.3708 16.9411H7.04016Z" fill="#1C1B1F"/>
</g>
</svg>
